# xmcd CD database file
#
# Track frame offsets:
#	150
#	15628
#	33920
#	45713
#	60180
#	77890
#	95725
#	116068
#	131258
#	152983
#	166373
#	181938
#	199743
#	215735
#	226548
#	244026
#	259708
#	271927
#	284262
#	299566
#	317212
#	329313
#
# Disc length: 4630 seconds
#
# Revision: 0
# Processed by: cddbd v1.5.2PL0 Copyright (c) Steve Scherf et al.
# Submitted via: ACXtractor (MTCDDB.DLL V2003.12.21)
#
DISCID=39121416
DTITLE=Dwight Yoakam - Last chance for a Thousand Years
DYEAR=2002
DGENRE=Country
TTITLE0=Turn it On, Turn it Up, turn me Loose
TTITLE1=You're the One
TTITLE2=It Only Hurts When I Cry
TTITLE3=The Heart that You Own
TTITLE4=Suspicious Minds
TTITLE5=Thinking About Leaving
TTITLE6=A Thousand Miles from Nowhere
TTITLE7=Ain't that Lonely Yet
TTITLE8=Fast as You
TTITLE9=Pocket of a Clown
TTITLE10=Sorry You asked
TTITLE11=Nothing
TTITLE12=I'll go back to Her
TTITLE13=Crazy Little thing Called Love
TTITLE14=It all Comes Down
TTITLE15=You were ,You're Right
TTITLE16=This Thing Called Love
TTITLE17=I Live for You
TTITLE18=Miracle in the Making
TTITLE19=My Baby
TTITLE20=Real Deal
TTITLE21=Yesterdays Wine
EXTD=ID3G:   2 YEAR: 2002
EXTT0=
EXTT1=
EXTT2=
EXTT3=
EXTT4=
EXTT5=
EXTT6=
EXTT7=
EXTT8=
EXTT9=
EXTT10=
EXTT11=
EXTT12=
EXTT13=
EXTT14=
EXTT15=
EXTT16=
EXTT17=
EXTT18=
EXTT19=
EXTT20=
EXTT21=
PLAYORDER=
